<svg version="1.1" id="Capa_1" xmlns="http://www.w3.org/2000/svg" x="0" y="0" viewBox="0 0 512 512" xml:space="preserve" fill="#5b86c5"><path d="M256 0C114.598 0 0 114.618 0 256s114.598 256 256 256 256-114.618 256-256S397.402 0 256 0zm10.379 490.981V449.73c0-5.736-4.65-10.379-10.379-10.379s-10.379 4.642-10.379 10.379v41.251C124.145 485.673 26.326 387.847 21.02 266.379h41.25c5.729 0 10.379-4.65 10.379-10.379 0-5.736-4.65-10.379-10.379-10.379H21.02C26.327 124.153 124.147 26.326 245.621 21.02v41.25c0 5.729 4.65 10.379 10.379 10.379 5.729 0 10.379-4.65 10.379-10.379V21.02c121.476 5.307 219.296 103.133 224.602 224.602H449.73c-5.729 0-10.379 4.642-10.379 10.379 0 5.729 4.65 10.379 10.379 10.379h41.251c-5.308 121.467-103.128 219.293-224.602 224.601z"/><path d="M390.78 111.789c-2.422 0-5.273.574-8.461 1.778L213.94 177.18c-14.239 5.376-30.284 21.435-35.66 35.667l-63.606 168.379c-4.179 11.05-.747 17.885 7.646 17.885 2.422 0 5.273-.574 8.461-1.778L299.16 333.72c14.239-5.376 30.284-21.435 35.66-35.667l63.606-168.379c4.179-11.049.755-17.885-7.646-17.885zm-98.953 202.517l-151.275 57.151 57.151-151.275c.693-1.82 1.813-3.778 3.134-5.764l19.836 19.843c-3.895 6.324-6.185 13.755-6.185 21.739 0 22.929 18.584 41.513 41.521 41.513 7.978 0 15.409-2.29 21.732-6.193l19.851 19.851c-1.981 1.322-3.945 2.45-5.765 3.135zM235.244 256c0-11.444 9.313-20.757 20.763-20.757 11.437 0 20.75 9.313 20.75 20.757s-9.313 20.757-20.75 20.757c-11.45 0-20.763-9.313-20.763-20.757zm80.162 34.719c-.693 1.82-1.813 3.784-3.142 5.77l-20.113-20.121a41.302 41.302 0 005.362-20.369c0-22.929-18.584-41.513-41.507-41.513a41.39 41.39 0 00-20.383 5.362l-20.107-20.113c1.985-1.329 3.944-2.449 5.77-3.142l151.268-57.151-57.148 151.277z"/></svg>