<svg id="line_icons" height="512" viewBox="0 0 74 74" width="512" xmlns="http://www.w3.org/2000/svg" data-name="line icons" fill="#5b86c5"><path d="M56.088 72a5.567 5.567 0 01-5.561-5.561V22.127l-8.636-9h-9.782l-8.636 9v44.312a5.561 5.561 0 11-11.121 0V19.892a5.541 5.541 0 011.546-3.85l11.825-12.33A5.588 5.588 0 0129.736 2h14.528a5.591 5.591 0 014.013 1.711L60.1 16.043a5.536 5.536 0 011.546 3.849v46.547A5.567 5.567 0 0156.088 72zm-24.4-60.878h10.629a1 1 0 01.722.307l9.21 9.6a1 1 0 01.278.692v44.718a3.561 3.561 0 107.121 0V19.892a3.542 3.542 0 00-.99-2.465L46.834 5.1a3.576 3.576 0 00-2.57-1.1H29.736a3.576 3.576 0 00-2.57 1.1L15.342 17.427a3.542 3.542 0 00-.99 2.465v46.547a3.561 3.561 0 107.121 0V21.725a1 1 0 01.278-.692l9.21-9.6a1 1 0 01.722-.311z"/><path d="M51.527 32.852H22.473a1 1 0 01-1-1v-5.508a1 1 0 011-1h29.054a1 1 0 011 1v5.508a1 1 0 01-1 1zm-28.054-2h27.054v-3.508H23.473zm28.054 18.533H22.473a1 1 0 01-1-1V42.2a1 1 0 011-1h29.054a1 1 0 011 1v6.188a1 1 0 01-1 .997zm-28.054-2h27.054V43.2H23.473zm28.054 17.396H22.473a1 1 0 01-1-1v-4.594a1 1 0 011-1h29.054a1 1 0 011 1v4.594a1 1 0 01-1 1zm-28.054-2h27.054v-2.594H23.473z"/><path d="M51.527 27.344a1 1 0 01-.678-.266l-9.569-8.847h-8.56l-9.569 8.847a1 1 0 01-1.678-.734v-4.619a1 1 0 01.278-.692l9.21-9.6a1 1 0 01.722-.307h10.634a1 1 0 01.722.307l9.21 9.6a1 1 0 01.278.692v4.619a1 1 0 01-1 1zm-19.2-11.113h9.344a1 1 0 01.679.266l8.176 7.56v-1.93l-8.636-9h-9.781l-8.636 9v1.93l8.176-7.56a1 1 0 01.679-.266zM17.745 43.106a1 1 0 01-1-1v-4.242a1 1 0 012 0v4.242a1 1 0 01-1 1zm38.276 0a1 1 0 01-1-1v-4.242a1 1 0 112 0v4.242a1 1 0 01-1 1z"/></svg>