<svg id="Capa_1" height="512" width="512" xmlns="http://www.w3.org/2000/svg" fill="#5b86c5"><path d="M255 180c8.284 0 15-6.716 15-15s-6.716-15-15-15h-16.509c-1.949-9.562-5.731-18.46-10.948-26.33l11.704-11.704c5.858-5.857 5.858-15.355 0-21.213-5.857-5.857-15.355-5.857-21.213 0l-11.704 11.704A74.55 74.55 0 00180 91.509V75c0-8.284-6.716-15-15-15s-15 6.716-15 15v16.509c-9.562 1.949-18.46 5.731-26.33 10.948l-11.704-11.704c-5.857-5.857-15.355-5.857-21.213 0s-5.858 15.355 0 21.213l11.704 11.704A74.55 74.55 0 0091.509 150H75c-8.284 0-15 6.716-15 15s6.716 15 15 15h16.509c1.949 9.562 5.731 18.46 10.948 26.33l-11.704 11.704c-5.858 5.857-5.858 15.355 0 21.213 2.929 2.929 6.768 4.394 10.606 4.394s7.678-1.465 10.606-4.394l11.704-11.704a74.55 74.55 0 0026.33 10.948V255c0 8.284 6.716 15 15 15s15-6.716 15-15v-16.509c9.562-1.949 18.46-5.731 26.33-10.948l11.704 11.704c2.929 2.929 6.768 4.394 10.606 4.394s7.678-1.465 10.606-4.394c5.858-5.857 5.858-15.355 0-21.213l-11.704-11.704A74.55 74.55 0 00238.489 180zm-90 30c-24.813 0-45-20.187-45-45s20.187-45 45-45 45 20.187 45 45-20.187 45-45 45z"/><path d="M437 0H165C74.019 0 0 74.019 0 165c0 67.737 41.034 126.062 99.546 151.448l320.273 181.038C429.617 506.491 442.676 512 457 512c30.327 0 55-24.673 55-55V75c0-41.355-33.645-75-75-75zM30 165C30 90.561 90.561 30 165 30s135 60.561 135 135-60.561 135-135 135S30 239.439 30 165zm427 317c-13.785 0-25-11.215-25-25s11.215-25 25-25 25 11.215 25 25-11.215 25-25 25zm25-73.965A54.647 54.647 0 00457 402c-28.995 0-52.804 22.557-54.842 51.042L182.786 329.039C265.433 320.14 330 249.972 330 165c0-55.745-27.792-105.115-70.242-135h117.283C367.603 42.544 362 58.129 362 75c0 41.355 33.645 75 75 75 16.871 0 32.456-5.603 45-15.041zM437 120c-24.813 0-45-20.187-45-45s20.187-45 45-45 45 20.187 45 45-20.187 45-45 45z"/><circle cx="437" cy="75" r="15"/><circle cx="165" cy="165" r="15"/></svg>