<svg id="Capa_1" height="512" width="512" xmlns="http://www.w3.org/2000/svg" fill="#5b86c5"><path d="M437 30.5c-41.355 0-75 33.645-75 75 0 23.123 11.425 57.921 30.901 81.025A44.994 44.994 0 00392 195.5c0 19.555 12.541 36.228 30 42.42V391.5c0 49.626-40.374 90-90 90-50.178 0-91-40.374-91-90v-68.072a59.608 59.608 0 0030 8.072c32.895 0 61-26.583 61-60v-151c0-33.424-28.112-60-61-60a59.615 59.615 0 00-30.318 8.255C237.258 30.55 205.08.5 166 .5S94.742 30.55 91.318 68.755A59.615 59.615 0 0061 60.5c-32.895 0-61 26.583-61 60v151c0 33.424 28.112 60 61 60a59.615 59.615 0 0030.318-8.255c2.974 33.184 27.637 60.215 59.682 66.746V451.5h30v-61.509c11.078-2.258 21.275-6.967 30-13.532V391.5c0 66.168 54.28 120 121 120 66.168 0 120-53.832 120-120V237.92c17.459-6.192 30-22.865 30-42.42 0-3.073-.311-6.073-.901-8.975C500.575 163.421 512 128.623 512 105.5c0-41.355-33.645-75-75-75zm-316 90h90v151h-90zm150-30c16.804 0 31 13.738 31 30v151c0 16.262-14.196 30-31 30-16.542 0-30-13.458-30-30v-151c0-16.542 13.458-30 30-30zm-105-60c24.813 0 45 20.187 45 45v15h-90v-15c0-24.813 20.187-45 45-45zm-105 271c-16.804 0-31-13.738-31-30v-151c0-16.262 14.196-30 31-30 16.542 0 30 13.458 30 30v151c0 16.542-13.458 30-30 30zm105 60c-24.813 0-45-20.187-45-45v-15h90v15c0 24.813-20.187 45-45 45zm271-211a44.763 44.763 0 00-26.941 8.979c-5.49-8.291-9.957-17.936-13.078-27.368C408.903 124.577 422.808 120.5 437 120.5s28.097 4.077 40.019 11.611c-3.121 9.432-7.589 19.077-13.078 27.368A44.763 44.763 0 00437 150.5zm0-90c23.14 0 42.249 17.559 44.722 40.051C467.814 93.997 452.533 90.5 437 90.5s-30.814 3.497-44.722 10.051C394.751 78.059 413.86 60.5 437 60.5zm0 150c-8.271 0-15-6.729-15-15s6.729-15 15-15 15 6.729 15 15-6.729 15-15 15z"/></svg>