<svg version="1.1" id="Capa_1" xmlns="http://www.w3.org/2000/svg" x="0" y="0" width="44.918" height="44.918" xml:space="preserve" fill="#5b86c5"><path d="M44.918 22.458c0-3.901-2.062-7.166-4.795-7.919a18.95 18.95 0 00-.646-1.321 19.3 19.3 0 00-3.317-4.459A19.293 19.293 0 0031.7 5.44a19.36 19.36 0 00-1.32-.645C29.625 2.062 26.359 0 22.459 0c-3.901 0-7.166 2.062-7.92 4.794-.446.2-.889.411-1.321.646a19.33 19.33 0 00-4.459 3.319 19.297 19.297 0 00-3.318 4.459c-.234.433-.446.875-.646 1.321C2.063 15.292 0 18.557 0 22.458c0 3.903 2.063 7.167 4.795 7.92a19.286 19.286 0 003.964 5.781 19.243 19.243 0 004.459 3.317c.433.234.875.445 1.321.646.754 2.731 4.019 4.795 7.92 4.795 3.9 0 7.166-2.063 7.92-4.795.445-.199.889-.41 1.32-.646a19.384 19.384 0 004.46-3.317 19.21 19.21 0 003.963-5.781c2.733-.753 4.796-4.018 4.796-7.92zm-15.52.838a7.179 7.179 0 01-.264 1.22c-.402-.5-.669-1.238-.669-2.058 0-.818.267-1.557.669-2.055.121.4.215.806.264 1.218a6.902 6.902 0 010 1.675zm-1.931-.838c0 1.288.506 2.42 1.27 3.083a6.914 6.914 0 01-1.327 1.867 6.911 6.911 0 01-1.867 1.328c-.662-.764-1.795-1.271-3.082-1.271s-2.421.507-3.082 1.271a6.882 6.882 0 01-3.194-3.195c.763-.662 1.269-1.795 1.269-3.083 0-1.287-.506-2.42-1.269-3.082a6.904 6.904 0 011.326-1.867 6.918 6.918 0 011.868-1.327c.662.763 1.795 1.269 3.082 1.269s2.42-.506 3.082-1.269a6.93 6.93 0 011.867 1.327 6.907 6.907 0 011.327 1.867c-.764.663-1.27 1.794-1.27 3.082zm-2.951 6.678a7.12 7.12 0 01-1.22.265 7.218 7.218 0 01-1.675 0 7.313 7.313 0 01-1.218-.265c.499-.403 1.237-.67 2.056-.67.818 0 1.557.265 2.057.67zm-8.997-7.514c.049-.412.143-.818.264-1.218.402.499.669 1.237.669 2.055 0 .819-.267 1.558-.669 2.058a7.137 7.137 0 01-.264-1.22 7.004 7.004 0 010-1.675zm4.884-5.84a7.19 7.19 0 011.218-.264 7.065 7.065 0 011.676 0c.412.049.818.142 1.219.264-.5.403-1.238.669-2.057.669s-1.557-.266-2.056-.669zm3.193-2.239a9.014 9.014 0 00-2.274 0l-6.618-6.619a17.44 17.44 0 0115.512 0l-6.62 6.619zm-8.893 24.451l6.619-6.619a8.921 8.921 0 002.274 0l6.618 6.619a17.445 17.445 0 01-15.511 0zM22.459 1c3.049 0 5.646 1.369 6.643 3.28a19.453 19.453 0 00-13.285 0C16.813 2.369 19.41 1 22.459 1zM1 22.458c0-3.049 1.369-5.646 3.28-6.643a19.458 19.458 0 000 13.287C2.369 28.104 1 25.507 1 22.458zm5.925 7.756a17.44 17.44 0 010-15.512l6.618 6.619a9.068 9.068 0 00.001 2.275l-6.619 6.618zm15.534 13.703c-3.049 0-5.646-1.369-6.643-3.278a19.455 19.455 0 0013.286 0c-.997 1.909-3.594 3.278-6.643 3.278zm8.915-20.321a8.93 8.93 0 000-2.275l6.619-6.619a17.44 17.44 0 010 15.512l-6.619-6.618zm9.265 5.506a19.458 19.458 0 000-13.287c1.91.997 3.279 3.594 3.279 6.643s-1.369 5.646-3.279 6.644z"/></svg>