<svg version="1.1" id="Capa_1" xmlns="http://www.w3.org/2000/svg" x="0" y="0" viewBox="0 0 512 512" xml:space="preserve" fill="#5b86c5"><path d="M256 0C114.848 0 0 114.848 0 256s114.848 256 256 256 256-114.848 256-256S397.152 0 256 0zm0 490.667c-107.211 0-197.792-72.288-225.717-170.667h151.808c17.771 26.837 45.003 42.667 73.909 42.667 28.907 0 56.139-15.829 73.909-42.667h151.808C453.792 418.379 363.211 490.667 256 490.667zm67.989-192a10.666 10.666 0 00-9.205 5.269c-13.717 23.413-35.691 37.397-58.784 37.397s-45.067-13.984-58.784-37.397a10.665 10.665 0 00-9.205-5.269H25.291A234.797 234.797 0 0121.334 256C21.333 126.603 126.603 21.333 256 21.333S490.667 126.603 490.667 256a234.886 234.886 0 01-3.957 42.667H323.989z"/><path d="M333.792 152.459l-63.509 63.509A42.172 42.172 0 00256 213.333c-23.564 0-42.667 19.102-42.667 42.667s19.102 42.667 42.667 42.667c23.44.119 42.539-18.786 42.658-42.226a42.44 42.44 0 00-10.509-28.174l60.725-60.725c4.093-4.237 3.976-10.99-.262-15.083a10.665 10.665 0 00-14.82 0zM256 277.333c-11.782 0-21.333-9.551-21.333-21.333 0-11.782 9.551-21.333 21.333-21.333 11.782 0 21.333 9.551 21.333 21.333 0 11.782-9.551 21.333-21.333 21.333zM256 96c5.891 0 10.667-4.776 10.667-10.667V42.667C266.667 36.776 261.891 32 256 32s-10.667 4.776-10.667 10.667v42.667C245.333 91.224 250.109 96 256 96zm213.333 149.333h-42.667c-5.891 0-10.667 4.776-10.667 10.667s4.776 10.667 10.667 10.667h42.667c5.891 0 10.667-4.776 10.667-10.667s-4.776-10.667-10.667-10.667zm-384 0H42.667C36.776 245.333 32 250.109 32 256s4.776 10.667 10.667 10.667h42.667C91.224 266.667 96 261.891 96 256s-4.776-10.667-10.667-10.667zm93.579-144.181l-18.133-31.477c-2.979-5.082-9.514-6.787-14.596-3.808-5.035 2.951-6.763 9.401-3.878 14.475l18.133 31.477c2.912 5.121 9.424 6.912 14.545 4s6.912-9.424 4-14.545l-.071-.122zm267.424 45.082c-2.912-5.121-9.424-6.912-14.545-4l-.122.07-31.477 18.133c-5.102 2.946-6.849 9.47-3.904 14.571a10.665 10.665 0 0014.57 3.904l31.477-18.133c5.122-2.912 6.913-9.424 4.001-14.545zm-334.394 14.243l-.124-.071-31.477-18.133c-5.082-2.979-11.617-1.274-14.596 3.808-2.979 5.082-1.274 11.617 3.808 14.596l.122.07 31.477 18.133c5.082 2.98 11.617 1.275 14.597-3.807 2.979-5.082 1.275-11.617-3.807-14.596zm253.754-94.67c-5.073-2.885-11.523-1.157-14.475 3.878l-18.133 31.477c-2.945 5.102-1.198 11.625 3.904 14.571 5.102 2.945 11.625 1.198 14.571-3.904l18.133-31.477c2.912-5.121 1.121-11.633-4-14.545z"/></svg>